<svg width="35" height="35" viewBox="0 0 35 35" fill="none" xmlns="http://www.w3.org/2000/svg">
<path d="M17.5 11.6667C17.5 11.6667 17.5 11.6667 16.3917 10.2084C15.1083 8.51675 13.2125 7.29175 10.9375 7.29175C7.30625 7.29175 4.375 10.223 4.375 13.8542C4.375 15.2105 4.78333 16.4647 5.48333 17.5001C6.66458 19.2647 17.5 30.6251 17.5 30.6251M17.5 11.6667C17.5 11.6667 17.5 11.6667 18.6083 10.2084C19.8917 8.51675 21.7875 7.29175 24.0625 7.29175C27.6938 7.29175 30.625 10.223 30.625 13.8542C30.625 15.2105 30.2167 16.4647 29.5167 17.5001C28.3354 19.2647 17.5 30.6251 17.5 30.6251" stroke="black" stroke-width="2.33333" stroke-linecap="round" stroke-linejoin="round"/>
</svg>
