<svg width="50" height="37" viewBox="0 0 50 37" fill="currentColor" xmlns="http://www.w3.org/2000/svg">
<path opacity="0.5" d="M29.234 4.54578H7.11944C4.84739 4.54578 3.69471 7.26413 5.27908 8.88545L17.0952 20.9711C17.2363 21.1154 17.4048 21.2301 17.5908 21.3084C17.7767 21.3867 17.9765 21.427 18.1783 21.427C18.38 21.427 18.5798 21.3867 18.7657 21.3084C18.9517 21.2301 19.1202 21.1154 19.2613 20.9711L31.0774 8.88545C32.6603 7.26413 31.5061 4.54578 29.234 4.54578Z" />
<path fill-rule="evenodd" clip-rule="evenodd" d="M10.6123 31.8203C10.6123 31.5189 10.732 31.2298 10.945 31.0167C11.1581 30.8036 11.447 30.6838 11.7483 30.6838H24.6051C24.9064 30.6838 25.1953 30.8036 25.4084 31.0167C25.6214 31.2298 25.7411 31.5189 25.7411 31.8203C25.7411 32.1217 25.6214 32.4107 25.4084 32.6239C25.1953 32.837 24.9064 32.9567 24.6051 32.9567H11.7483C11.447 32.9567 11.1581 32.837 10.945 32.6239C10.732 32.4107 10.6123 32.1217 10.6123 31.8203Z" />
<path d="M17.0939 20.971C17.235 21.1153 17.4035 21.23 17.5895 21.3083C17.7754 21.3866 17.9752 21.4269 18.177 21.4269C18.3787 21.4269 18.5785 21.3866 18.7645 21.3083C18.9504 21.23 19.1189 21.1153 19.26 20.971L24.9492 15.1525H11.4062L17.0939 20.971Z" />
<path opacity="0.5" d="M17.094 20.9709C17.2351 21.1153 17.4036 21.2299 17.5895 21.3082C17.7755 21.3865 17.9753 21.4268 18.177 21.4268C18.3788 21.4268 18.5786 21.3865 18.7645 21.3082C18.9505 21.2299 19.119 21.1153 19.26 20.9709L19.3131 20.9179V30.6837H17.041V20.9164L17.094 20.9709Z" />
<path opacity="0.5" d="M42.8815 4.60376H20.7669C18.4949 4.60376 17.3422 7.32212 18.9265 8.94343L30.7427 21.0291C30.8838 21.1734 31.0522 21.2881 31.2382 21.3663C31.4242 21.4446 31.6239 21.485 31.8257 21.485C32.0275 21.485 32.2272 21.4446 32.4132 21.3663C32.5992 21.2881 32.7677 21.1734 32.9087 21.0291L44.7249 8.94343C46.3077 7.32212 45.1535 4.60376 42.8815 4.60376Z" />
<path fill-rule="evenodd" clip-rule="evenodd" d="M24.2598 31.8783C24.2598 31.5769 24.3795 31.2878 24.5925 31.0747C24.8055 30.8616 25.0945 30.7418 25.3958 30.7418H38.2526C38.5539 30.7418 38.8428 30.8616 39.0559 31.0747C39.2689 31.2878 39.3886 31.5769 39.3886 31.8783C39.3886 32.1797 39.2689 32.4687 39.0559 32.6818C38.8428 32.895 38.5539 33.0147 38.2526 33.0147H25.3958C25.0945 33.0147 24.8055 32.895 24.5925 32.6818C24.3795 32.4687 24.2598 32.1797 24.2598 31.8783Z" />
<path d="M30.7414 21.0291C30.8825 21.1734 31.0509 21.2881 31.2369 21.3664C31.4229 21.4447 31.6226 21.485 31.8244 21.485C32.0262 21.485 32.2259 21.4447 32.4119 21.3664C32.5979 21.2881 32.7664 21.1734 32.9074 21.0291L38.5966 15.2106H25.0537L30.7414 21.0291Z" />
<path opacity="0.5" d="M30.7405 21.029C30.8816 21.1734 31.05 21.288 31.236 21.3663C31.422 21.4446 31.6217 21.4849 31.8235 21.4849C32.0253 21.4849 32.225 21.4446 32.411 21.3663C32.597 21.288 32.7655 21.1734 32.9065 21.029L32.9595 20.976V30.7418H30.6875V20.9745L30.7405 21.029Z" />
</svg>
